<svg width="32" height="33" viewBox="0 0 32 33" fill="none" xmlns="http://www.w3.org/2000/svg">
<path d="M17.2928 25.9342C17.1054 25.7466 17.0001 25.4923 17.0001 25.2271C17.0001 24.9619 17.1054 24.7075 17.2928 24.52L24.5858 17.2271H5C4.73478 17.2271 4.48043 17.1217 4.29289 16.9342C4.10536 16.7466 4 16.4923 4 16.2271C4 15.9619 4.10536 15.7075 4.29289 15.52C4.48043 15.3324 4.73478 15.2271 5 15.2271H24.5858L17.2928 7.93417C17.2 7.8413 17.1263 7.73106 17.0761 7.60973C17.0258 7.4884 17 7.35836 17 7.22703C17 7.09571 17.0259 6.96567 17.0761 6.84434C17.1264 6.72302 17.2 6.61278 17.2929 6.51992C17.3858 6.42706 17.496 6.35341 17.6173 6.30316C17.7387 6.25291 17.8687 6.22705 18 6.22705C18.1314 6.22706 18.2614 6.25293 18.3827 6.30319C18.5041 6.35345 18.6143 6.42712 18.7072 6.51998L27.7072 15.52C27.7104 15.5232 27.7131 15.5268 27.7163 15.5301C27.7361 15.5504 27.7552 15.5712 27.7732 15.593C27.7832 15.6052 27.792 15.6182 27.8014 15.6308C27.8115 15.6443 27.822 15.6576 27.8315 15.6717C27.8412 15.6862 27.8497 15.7014 27.8586 15.7163C27.8664 15.7294 27.8746 15.7422 27.8818 15.7556C27.8898 15.7707 27.8967 15.7862 27.9039 15.8015C27.9107 15.8158 27.9178 15.8298 27.9238 15.8444C27.9299 15.8592 27.9349 15.8743 27.9403 15.8893C27.9459 15.9051 27.952 15.9207 27.9569 15.9368C27.9614 15.9517 27.9647 15.9669 27.9685 15.9821C27.9727 15.9986 27.9773 16.0149 27.9806 16.0317C27.9841 16.0492 27.9861 16.0667 27.9887 16.0843C27.9908 16.099 27.9936 16.1135 27.995 16.1284C27.9983 16.1612 28 16.1941 28 16.2271C28 16.26 27.9983 16.2929 27.995 16.3258C27.9936 16.3407 27.9908 16.3551 27.9887 16.3699C27.9862 16.3874 27.9841 16.405 27.9806 16.4224C27.9773 16.4392 27.9727 16.4556 27.9685 16.4721C27.9647 16.4872 27.9614 16.5024 27.9569 16.5174C27.952 16.5335 27.9459 16.5491 27.9403 16.5648C27.9349 16.5799 27.9299 16.595 27.9238 16.6098C27.9178 16.6244 27.9106 16.6384 27.9039 16.6527C27.8967 16.668 27.8898 16.6835 27.8818 16.6985C27.8746 16.712 27.8664 16.7248 27.8586 16.7378C27.8497 16.7528 27.8412 16.7679 27.8315 16.7824C27.822 16.7965 27.8115 16.8098 27.8014 16.8234C27.792 16.836 27.7832 16.8489 27.7732 16.8611C27.7549 16.8834 27.7354 16.9046 27.7153 16.9252C27.7124 16.9281 27.7101 16.9313 27.7072 16.9342L18.7072 25.9342C18.6143 26.027 18.504 26.1007 18.3827 26.151C18.2614 26.2012 18.1313 26.2271 18 26.2271C17.8687 26.2271 17.7386 26.2012 17.6173 26.151C17.496 26.1007 17.3857 26.027 17.2928 25.9342Z" fill="#08A3D1"/>
</svg>
