<svg width="48" height="38" viewBox="0 0 48 38" fill="none" xmlns="http://www.w3.org/2000/svg">
<g clip-path="url(#clip0_88_65)">
<path d="M29.1416 8.62402H41.1395V12.0693H29.1416V8.62402Z" fill="#08A3D1"/>
<path d="M29.1416 17.2373H41.1395V20.6826H29.1416V17.2373Z" fill="#08A3D1"/>
<path d="M29.1416 25.8506H41.1395V29.2959H29.1416V25.8506Z" fill="#08A3D1"/>
<path d="M44.5674 0.0117188H3.43187C2.52299 0.0126309 1.65161 0.375912 1.00893 1.02184C0.366264 1.66776 0.00481376 2.54356 0.00390625 3.45704V34.4649C0.00481376 35.3784 0.366264 36.2542 1.00893 36.9001C1.65161 37.546 2.52299 37.9093 3.43187 37.9102H44.5674C45.4761 37.9088 46.3472 37.5454 46.9898 36.8996C47.6324 36.2538 47.994 35.3782 47.9953 34.4649V3.45704C47.9944 2.54356 47.633 1.66776 46.9903 1.02184C46.3477 0.375912 45.4763 0.0126309 44.5674 0.0117188ZM3.43187 3.45704H22.2856V34.4649H3.43187V3.45704ZM25.7136 34.4649V3.45704H44.5674L44.5708 34.4649H25.7136Z" fill="#08A3D1"/>
</g>
<defs>
<clipPath id="clip0_88_65">
<rect width="48" height="37.92" fill="white"/>
</clipPath>
</defs>
</svg>
