<svg width="77" height="73" viewBox="0 0 77 73" fill="none" xmlns="http://www.w3.org/2000/svg">
<g clip-path="url(#clip0_72_1008)">
<path d="M67.926 28.1617C65.531 28.1617 63.4234 29.1559 61.8747 30.7113C56.1747 26.7505 48.4949 24.2009 39.9848 23.9283L44.4075 3.9158L58.4898 7.09085C58.4898 10.5546 61.2999 13.3768 64.7486 13.3768C68.2613 13.3768 71.0873 10.4744 71.0873 7.01068C71.0873 3.54698 68.2772 0.644531 64.7486 0.644531C62.2898 0.644531 60.1663 2.13585 59.1125 4.17237L43.5613 0.708674C42.7789 0.500211 42.0125 1.06146 41.805 1.8472L36.9512 23.9122C28.505 24.265 20.905 26.8147 15.189 30.7755C13.6403 29.1559 11.4529 28.1617 9.0579 28.1617C0.18059 28.1617 -2.72529 40.1243 5.4016 44.2133C5.1142 45.4802 4.98647 46.8271 4.98647 48.1741C4.98647 61.612 20.0587 72.5002 38.5638 72.5002C57.1487 72.5002 72.2209 61.612 72.2209 48.1741C72.2209 46.8271 72.0772 45.416 71.726 44.1492C79.6932 40.0441 76.7554 28.1617 67.926 28.1617ZM18.2865 45.0632C18.2865 41.5354 21.0966 38.6971 24.6251 38.6971C28.0739 38.6971 30.884 41.5194 30.884 45.0632C30.884 48.5269 28.0739 51.3492 24.6251 51.3492C21.1125 51.3652 18.2865 48.5269 18.2865 45.0632ZM52.5024 60.0565C46.6907 65.8935 30.2932 65.8935 24.4814 60.0565C23.8428 59.4953 23.8428 58.5011 24.4814 57.8597C25.0403 57.2984 26.0302 57.2984 26.589 57.8597C31.0276 62.4298 45.7487 62.51 50.3789 57.8597C50.9377 57.2984 51.9276 57.2984 52.4865 57.8597C53.1411 58.5011 53.1411 59.4953 52.5024 60.0565ZM52.3747 51.3652C48.926 51.3652 46.1159 48.543 46.1159 45.0793C46.1159 41.5514 48.926 38.7131 52.3747 38.7131C55.8873 38.7131 58.7134 41.5354 58.7134 45.0793C58.6974 48.5269 55.8873 51.3652 52.3747 51.3652Z" fill="#737373"/>
</g>
<defs>
<clipPath id="clip0_72_1008">
<rect width="76" height="72" fill="white" transform="translate(0.5 0.5)"/>
</clipPath>
</defs>
</svg>
