<svg width="105" height="63" viewBox="0 0 105 63" fill="none" xmlns="http://www.w3.org/2000/svg">
<g clip-path="url(#clip0_72_1005)">
<path d="M29.8868 22.9882C29.7701 26.6263 31.6039 28.2373 31.6492 29.2605C31.6277 29.4687 31.5561 29.6688 31.4405 29.844C31.325 30.0192 31.1688 30.1645 30.9851 30.2676L28.9116 31.7068C28.6432 31.8933 28.3269 32.0002 27.9995 32.0152C27.9299 32.0119 26.6728 32.3091 24.6819 27.9016C23.4672 29.405 21.9218 30.6128 20.1638 31.4327C18.4058 32.2526 16.482 32.6628 14.5395 32.6319C11.9022 32.7749 4.75504 31.1478 5.12277 23.6034C4.8652 17.4548 10.6403 13.6352 16.613 13.9581C17.7631 13.9613 20.1121 14.0175 24.2251 14.9652V12.4562C24.6608 8.20619 21.8438 4.90862 16.9661 5.40334C16.5773 5.40494 13.8235 5.32303 9.54034 7.02723C8.34806 7.57013 8.19579 7.48018 7.79891 7.48018C6.59853 7.48018 7.09261 4.03002 7.32264 3.59313C8.16663 2.56515 13.1317 0.645723 18.0045 0.673028C21.2626 0.387326 24.5032 1.38434 27.0259 3.44857C28.0514 4.58591 28.8338 5.91753 29.3257 7.36301C29.8177 8.8085 30.0091 10.3379 29.8884 11.8587L29.8868 22.9882ZM15.8873 28.1907C21.1407 28.1153 23.3649 24.9831 23.8719 23.2966C24.2704 21.6824 24.204 20.6608 24.204 18.8956C22.6375 18.5229 20.3826 18.1166 17.7955 18.1133C15.3413 17.9302 10.859 19.0176 11.0339 23.295C10.833 25.9918 12.8353 28.3385 15.8873 28.1907ZM43.5752 31.8931C42.302 32.0087 41.7091 31.1125 41.5211 30.2274L33.4539 3.78106C33.2967 3.33453 33.193 2.87355 33.1428 2.40292C33.1131 2.2089 33.1622 2.01109 33.2795 1.85298C33.3967 1.69486 33.5725 1.58936 33.7681 1.55966C33.807 1.55323 33.4231 1.55966 37.3725 1.55966C38.7948 1.41831 39.2581 2.52821 39.4055 3.22531L45.1919 25.8457L50.5636 3.22531C50.6495 2.70811 51.0399 1.44723 52.6372 1.58054H55.417C55.7685 1.55163 57.2167 1.50023 57.4711 3.24619L62.8849 26.1557L68.8576 3.24619C68.9353 2.89603 69.2982 1.41992 70.9117 1.58054H74.1062C74.2439 1.55966 75.1024 1.45044 74.9567 2.95868C74.887 3.25583 75.5091 1.24645 66.4115 30.2483C66.2252 31.1333 65.6307 32.0296 64.3574 31.914H61.3297C59.5575 32.0987 59.3032 30.3624 59.2757 30.1873L53.9039 8.16121L48.5938 30.1648C48.5679 30.3399 48.3135 32.0762 46.5397 31.8915H43.5752V31.8931ZM87.8773 32.7974C86.9248 32.799 82.3824 32.7492 78.5853 30.8233C78.2071 30.6645 77.8849 30.398 77.6597 30.0574C77.4344 29.7168 77.3163 29.3176 77.3201 28.9103V27.1837C77.3201 25.8264 78.3245 26.0754 78.7505 26.2376C80.377 26.8897 81.4202 27.3844 83.4176 27.7796C89.3547 28.989 91.966 27.4101 92.6059 27.06C94.7361 25.8055 94.9046 22.9352 93.4563 21.4462C91.7587 20.0344 90.9487 19.9814 84.8496 18.0732C84.098 17.866 77.7705 15.8871 77.7559 9.66303C77.6571 5.12707 81.8139 0.639297 89.0177 0.67624C91.0702 0.674634 96.5391 1.33961 98.0197 3.18515C98.2384 3.52085 98.3469 3.91598 98.3307 4.31593V5.93982C98.3307 6.65298 98.0683 7.00956 97.5418 7.00956C96.2929 6.87142 94.0768 5.21541 89.5782 5.28287C88.4621 5.22505 83.1163 5.42904 83.356 9.2936C83.2864 12.339 87.6667 13.481 88.1672 13.6127C94.0735 15.3747 96.0482 15.6671 98.3923 18.3639C101.169 21.9377 99.6721 26.1219 99.097 27.2688C96.0061 33.2905 88.0134 32.8006 87.8773 32.7974ZM94.3894 49.6402C83.045 57.9475 66.5767 62.3695 52.5157 62.3695C33.543 62.4935 15.2098 55.5763 1.1199 42.9776C0.0620835 42.0315 0.995168 40.7353 2.2814 41.4565C17.9113 50.3215 35.6076 54.9794 53.614 54.968C67.0607 54.8965 80.3606 52.1918 92.75 47.0092C94.6583 46.2061 96.2767 48.262 94.3894 49.6402ZM99.118 44.2931C97.6666 42.4427 89.515 43.4289 85.8653 43.861C84.7654 43.9847 84.5791 43.0386 85.5753 42.3399C92.0664 37.8152 102.727 39.1114 103.952 40.6325C105.175 42.1536 103.62 52.745 97.5434 57.8046C96.6104 58.5868 95.7178 58.174 96.1325 57.146C97.4997 53.7328 100.569 46.1451 99.118 44.2931Z" fill="#737373"/>
</g>
<defs>
<clipPath id="clip0_72_1005">
<rect width="104" height="62" fill="white" transform="translate(0.5 0.5)"/>
</clipPath>
</defs>
</svg>
