<svg width="60" height="60" viewBox="0 0 60 60" fill="none" xmlns="http://www.w3.org/2000/svg">
<circle cx="30" cy="30" r="30" fill="#08A3D1"/>
<path d="M22.17 36.39C22.85 35.85 23.16 35.6 23.1 35.64C25.06 34.02 26.6 32.69 27.72 31.65C28.86 30.61 29.82 29.52 30.6 28.38C31.38 27.24 31.77 26.13 31.77 25.05C31.77 24.23 31.58 23.59 31.2 23.13C30.82 22.67 30.25 22.44 29.49 22.44C28.73 22.44 28.13 22.73 27.69 23.31C27.27 23.87 27.06 24.67 27.06 25.71H22.11C22.15 24.01 22.51 22.59 23.19 21.45C23.89 20.31 24.8 19.47 25.92 18.93C27.06 18.39 28.32 18.12 29.7 18.12C32.08 18.12 33.87 18.73 35.07 19.95C36.29 21.17 36.9 22.76 36.9 24.72C36.9 26.86 36.17 28.85 34.71 30.69C33.25 32.51 31.39 34.29 29.13 36.03H37.23V40.2H22.17V36.39Z" fill="white"/>
</svg>
