<svg width="60" height="60" viewBox="0 0 60 60" fill="none" xmlns="http://www.w3.org/2000/svg">
<circle cx="30" cy="30" r="30" fill="#08A3D1"/>
<path d="M22.53 24.78C22.61 22.64 23.31 20.99 24.63 19.83C25.95 18.67 27.74 18.09 30 18.09C31.5 18.09 32.78 18.35 33.84 18.87C34.92 19.39 35.73 20.1 36.27 21C36.83 21.9 37.11 22.91 37.11 24.03C37.11 25.35 36.78 26.43 36.12 27.27C35.46 28.09 34.69 28.65 33.81 28.95V29.07C34.95 29.45 35.85 30.08 36.51 30.96C37.17 31.84 37.5 32.97 37.5 34.35C37.5 35.59 37.21 36.69 36.63 37.65C36.07 38.59 35.24 39.33 34.14 39.87C33.06 40.41 31.77 40.68 30.27 40.68C27.87 40.68 25.95 40.09 24.51 38.91C23.09 37.73 22.34 35.95 22.26 33.57H27.24C27.26 34.45 27.51 35.15 27.99 35.67C28.47 36.17 29.17 36.42 30.09 36.42C30.87 36.42 31.47 36.2 31.89 35.76C32.33 35.3 32.55 34.7 32.55 33.96C32.55 33 32.24 32.31 31.62 31.89C31.02 31.45 30.05 31.23 28.71 31.23H27.75V27.06H28.71C29.73 27.06 30.55 26.89 31.17 26.55C31.81 26.19 32.13 25.56 32.13 24.66C32.13 23.94 31.93 23.38 31.53 22.98C31.13 22.58 30.58 22.38 29.88 22.38C29.12 22.38 28.55 22.61 28.17 23.07C27.81 23.53 27.6 24.1 27.54 24.78H22.53Z" fill="white"/>
</svg>
