<svg width="48" height="48" viewBox="0 0 48 48" fill="none" xmlns="http://www.w3.org/2000/svg">
<g clip-path="url(#clip0_72_915)">
<g clip-path="url(#clip1_72_915)">
<path d="M43.6506 22.2819C43.0751 22.2861 42.505 22.3959 41.9678 22.6061L36.2275 17.8214C36.3687 17.2998 36.4692 16.7587 36.4692 16.1883C36.4692 12.81 33.8026 10.0947 30.4848 10.0947C27.167 10.0947 24.5003 12.81 24.5003 16.1883C24.5003 17.1536 24.7397 18.053 25.1275 18.8622L18.164 27.2421C17.8852 27.189 17.6025 27.1605 17.319 27.1568C16.8905 27.1568 16.4859 27.23 16.0934 27.3372L9.9581 21.09C10.0658 20.6927 10.1376 20.2808 10.1376 19.8445C10.1376 17.1438 8.00238 14.9696 5.35006 14.9696C2.69775 14.9696 0.5625 17.1438 0.5625 19.8445C0.5625 22.5452 2.69775 24.7194 5.35006 24.7194C5.77855 24.7194 6.1831 24.6463 6.57568 24.539L12.7109 30.7862C12.5959 31.1911 12.5355 31.6102 12.5314 32.0317C12.5314 34.7324 14.6667 36.9066 17.319 36.9066C19.9713 36.9066 22.1065 34.7324 22.1065 32.0317C22.1065 31.454 21.9916 30.9105 21.8121 30.3962L28.7852 22.0065C29.3286 22.1674 29.8911 22.2819 30.4848 22.2819C31.4295 22.2766 32.3593 22.0418 33.1969 21.597L38.9396 26.3817C38.8946 26.6377 38.869 26.8968 38.863 27.1568C38.863 29.8575 40.9983 32.0317 43.6506 32.0317C46.3029 32.0317 48.4381 29.8575 48.4381 27.1568C48.4381 24.4561 46.3029 22.2819 43.6506 22.2819Z" fill="#00A0C1"/>
</g>
</g>
<defs>
<clipPath id="clip0_72_915">
<rect width="48" height="48" fill="white"/>
</clipPath>
<clipPath id="clip1_72_915">
<rect width="48" height="27.0968" fill="white" transform="translate(0.5 10)"/>
</clipPath>
</defs>
</svg>
