<svg width="32" height="32" viewBox="0 0 32 32" fill="none" xmlns="http://www.w3.org/2000/svg">
<path d="M14.1334 18.4003L11.2334 15.5003C10.989 15.2559 10.689 15.1337 10.3334 15.1337C9.97786 15.1337 9.66675 15.267 9.40008 15.5337C9.15564 15.7781 9.03341 16.0892 9.03341 16.467C9.03341 16.8448 9.15564 17.1559 9.40008 17.4003L13.2001 21.2003C13.4445 21.4448 13.7556 21.567 14.1334 21.567C14.5112 21.567 14.8223 21.4448 15.0667 21.2003L22.6334 13.6337C22.8779 13.3892 23.0001 13.0892 23.0001 12.7337C23.0001 12.3781 22.8667 12.067 22.6001 11.8003C22.3556 11.5559 22.0445 11.4337 21.6667 11.4337C21.289 11.4337 20.9779 11.5559 20.7334 11.8003L14.1334 18.4003ZM16.0001 29.3337C14.1556 29.3337 12.4223 28.9834 10.8001 28.283C9.17786 27.5834 7.76675 26.6337 6.56675 25.4337C5.36675 24.2337 4.41697 22.8225 3.71741 21.2003C3.01697 19.5781 2.66675 17.8448 2.66675 16.0003C2.66675 14.1559 3.01697 12.4225 3.71741 10.8003C4.41697 9.1781 5.36675 7.76699 6.56675 6.56699C7.76675 5.36699 9.17786 4.41677 10.8001 3.71633C12.4223 3.01677 14.1556 2.66699 16.0001 2.66699C17.8445 2.66699 19.5779 3.01677 21.2001 3.71633C22.8223 4.41677 24.2334 5.36699 25.4334 6.56699C26.6334 7.76699 27.5832 9.1781 28.2827 10.8003C28.9832 12.4225 29.3334 14.1559 29.3334 16.0003C29.3334 17.8448 28.9832 19.5781 28.2827 21.2003C27.5832 22.8225 26.6334 24.2337 25.4334 25.4337C24.2334 26.6337 22.8223 27.5834 21.2001 28.283C19.5779 28.9834 17.8445 29.3337 16.0001 29.3337Z" fill="#FEF922"/>
</svg>
