<svg width="50" height="50" viewBox="0 0 50 50" fill="none" xmlns="http://www.w3.org/2000/svg">
<rect x="0.0996094" y="0.572266" width="49.2526" height="49.2526" rx="24.6263" fill="#18A8D3"/>
<path d="M34.0592 25.1318C34.0592 22.5318 33.1534 20.3261 31.3418 18.5145C29.5312 16.7038 27.3258 15.7985 24.7258 15.7985V13.1318C26.3925 13.1318 27.9538 13.4483 29.4098 14.0812C30.8649 14.7149 32.1316 15.5709 33.2098 16.6492C34.2872 17.7265 35.1427 18.9932 35.7765 20.4492C36.4094 21.9043 36.7258 23.4652 36.7258 25.1318H34.0592ZM28.7258 25.1318C28.7258 24.0207 28.3369 23.0763 27.5592 22.2985C26.7814 21.5207 25.8369 21.1318 24.7258 21.1318V18.4652C26.5703 18.4652 28.1427 19.1149 29.4432 20.4145C30.7427 21.7149 31.3925 23.2874 31.3925 25.1318H28.7258ZM35.3258 37.1985C32.4592 37.1985 29.6649 36.5652 26.9432 35.2985C24.2205 34.0318 21.8094 32.3429 19.7098 30.2318C17.6094 28.1207 15.9205 25.7038 14.6432 22.9812C13.3649 20.2594 12.7258 17.4652 12.7258 14.5985V13.8985C12.7258 13.6541 12.7481 13.4207 12.7925 13.1985H20.5925L21.8258 19.8985L18.0258 23.7318C18.9592 25.3318 20.1316 26.8318 21.5432 28.2318C22.9538 29.6318 24.5036 30.8429 26.1925 31.8652L30.0592 27.9985L36.7258 29.3318V37.1318C36.5036 37.1541 36.2703 37.1709 36.0258 37.1825C35.7814 37.1932 35.5481 37.1985 35.3258 37.1985Z" fill="white"/>
</svg>
