<svg width="187" height="58" viewBox="0 0 187 58" fill="none" xmlns="http://www.w3.org/2000/svg">
<path d="M9.024 21.176C11.168 21.176 12.832 21.696 14.016 22.736C15.2 23.76 15.792 25.208 15.792 27.08C15.792 29.064 15.2 30.608 14.016 31.712C12.832 32.8 11.168 33.344 9.024 33.344H6.024V38H1.632V21.176H9.024ZM8.808 29.84C9.704 29.84 10.392 29.616 10.872 29.168C11.368 28.72 11.616 28.072 11.616 27.224C11.616 26.408 11.368 25.784 10.872 25.352C10.392 24.904 9.704 24.68 8.808 24.68H6.024V29.84H8.808ZM23.7565 24.872C25.8685 24.872 27.4925 25.496 28.6285 26.744C29.7645 27.992 30.3325 29.704 30.3325 31.88C30.3325 32.216 30.3245 32.472 30.3085 32.648H21.2845C21.4925 33.384 21.8525 33.952 22.3645 34.352C22.8765 34.736 23.5005 34.928 24.2365 34.928C24.7965 34.928 25.3325 34.816 25.8445 34.592C26.3725 34.368 26.8525 34.04 27.2845 33.608L29.5165 35.84C28.8445 36.592 28.0285 37.168 27.0685 37.568C26.1245 37.952 25.0525 38.144 23.8525 38.144C22.4605 38.144 21.2445 37.872 20.2045 37.328C19.1645 36.784 18.3645 36.016 17.8045 35.024C17.2605 34.032 16.9885 32.88 16.9885 31.568C16.9885 30.24 17.2685 29.072 17.8285 28.064C18.3885 27.04 19.1805 26.256 20.2045 25.712C21.2285 25.152 22.4125 24.872 23.7565 24.872ZM26.1805 30.368C26.1805 29.616 25.9565 29.016 25.5085 28.568C25.0765 28.104 24.5005 27.872 23.7805 27.872C23.1085 27.872 22.5405 28.096 22.0765 28.544C21.6285 28.992 21.3325 29.6 21.1885 30.368H26.1805ZM36.8774 27.176C37.3254 26.424 37.9014 25.848 38.6054 25.448C39.3254 25.048 40.1414 24.848 41.0534 24.848V28.76C40.9094 28.744 40.6934 28.736 40.4054 28.736C39.3974 28.736 38.5814 28.976 37.9574 29.456C37.3334 29.92 36.9734 30.56 36.8774 31.376V38H32.6054V25.016H36.8774V27.176ZM51.6819 29.12C50.0019 28.24 48.6259 27.8 47.5539 27.8C47.1859 27.8 46.8899 27.872 46.6659 28.016C46.4419 28.144 46.3299 28.344 46.3299 28.616C46.3299 28.904 46.5059 29.136 46.8579 29.312C47.2099 29.488 47.7699 29.68 48.5379 29.888C49.4659 30.16 50.2339 30.432 50.8419 30.704C51.4659 30.96 52.0019 31.36 52.4499 31.904C52.8979 32.432 53.1219 33.128 53.1219 33.992C53.1219 35.304 52.6099 36.336 51.5859 37.088C50.5779 37.824 49.2579 38.192 47.6259 38.192C46.5219 38.192 45.4659 38.04 44.4579 37.736C43.4499 37.416 42.5539 36.952 41.7699 36.344L43.1139 33.584C43.8499 34.096 44.6179 34.496 45.4179 34.784C46.2339 35.056 47.0019 35.192 47.7219 35.192C48.1379 35.192 48.4659 35.128 48.7059 35C48.9619 34.856 49.0899 34.656 49.0899 34.4C49.0899 34.08 48.9059 33.832 48.5379 33.656C48.1859 33.48 47.6259 33.288 46.8579 33.08C45.9459 32.808 45.1939 32.544 44.6019 32.288C44.0099 32.016 43.4899 31.616 43.0419 31.088C42.6099 30.56 42.3939 29.872 42.3939 29.024C42.3939 27.712 42.8899 26.688 43.8819 25.952C44.8739 25.2 46.1539 24.824 47.7219 24.824C48.6659 24.824 49.5939 24.952 50.5059 25.208C51.4339 25.464 52.3059 25.84 53.1219 26.336L51.6819 29.12ZM61.5404 24.872C62.9484 24.872 64.1884 25.152 65.2604 25.712C66.3324 26.256 67.1644 27.032 67.7564 28.04C68.3484 29.032 68.6444 30.184 68.6444 31.496C68.6444 32.824 68.3484 33.992 67.7564 35C67.1644 35.992 66.3324 36.768 65.2604 37.328C64.1884 37.872 62.9484 38.144 61.5404 38.144C60.1324 38.144 58.8924 37.872 57.8204 37.328C56.7484 36.768 55.9164 35.992 55.3244 35C54.7484 33.992 54.4604 32.824 54.4604 31.496C54.4604 30.184 54.7484 29.032 55.3244 28.04C55.9164 27.032 56.7484 26.256 57.8204 25.712C58.8924 25.152 60.1324 24.872 61.5404 24.872ZM61.5404 28.328C60.7084 28.328 60.0364 28.624 59.5244 29.216C59.0124 29.808 58.7564 30.584 58.7564 31.544C58.7564 32.52 59.0124 33.304 59.5244 33.896C60.0364 34.488 60.7084 34.784 61.5404 34.784C62.3884 34.784 63.0684 34.488 63.5804 33.896C64.0924 33.304 64.3484 32.52 64.3484 31.544C64.3484 30.584 64.0844 29.808 63.5564 29.216C63.0444 28.624 62.3724 28.328 61.5404 28.328ZM79.4891 24.848C80.9131 24.848 82.0491 25.296 82.8971 26.192C83.7611 27.088 84.1931 28.296 84.1931 29.816V38H79.9451V31.04C79.9451 30.304 79.7451 29.728 79.3451 29.312C78.9451 28.88 78.4091 28.664 77.7371 28.664C77.0331 28.68 76.4491 28.912 75.9851 29.36C75.5371 29.808 75.2731 30.4 75.1931 31.136V38H70.9211V25.016H75.1931V27.128C75.6571 26.376 76.2491 25.808 76.9691 25.424C77.7051 25.04 78.5451 24.848 79.4891 24.848ZM93.0489 24.848C94.8409 24.848 96.2329 25.264 97.2249 26.096C98.2169 26.912 98.7209 28.064 98.7369 29.552V38H94.5369V36.536C93.6729 37.64 92.3689 38.192 90.6249 38.192C89.2489 38.192 88.1609 37.824 87.3609 37.088C86.5769 36.336 86.1849 35.352 86.1849 34.136C86.1849 32.904 86.6089 31.944 87.4569 31.256C88.3209 30.568 89.5529 30.216 91.1529 30.2H94.5369V30.056C94.5369 29.432 94.3209 28.952 93.8889 28.616C93.4729 28.28 92.8649 28.112 92.0649 28.112C91.5209 28.112 90.9049 28.2 90.2169 28.376C89.5449 28.552 88.8649 28.808 88.1769 29.144L87.0009 26.264C88.0569 25.784 89.0649 25.432 90.0249 25.208C91.0009 24.968 92.0089 24.848 93.0489 24.848ZM91.9449 35.288C92.5849 35.288 93.1449 35.136 93.6249 34.832C94.1049 34.512 94.4089 34.104 94.5369 33.608V32.48H91.9929C90.7929 32.48 90.1929 32.928 90.1929 33.824C90.1929 34.272 90.3449 34.632 90.6489 34.904C90.9689 35.16 91.4009 35.288 91.9449 35.288ZM101.827 20.192H106.099V38H101.827V20.192ZM115.009 21.176H119.401V34.256H126.529V38H115.009V21.176ZM134.656 24.872C136.064 24.872 137.304 25.152 138.376 25.712C139.448 26.256 140.28 27.032 140.872 28.04C141.464 29.032 141.76 30.184 141.76 31.496C141.76 32.824 141.464 33.992 140.872 35C140.28 35.992 139.448 36.768 138.376 37.328C137.304 37.872 136.064 38.144 134.656 38.144C133.248 38.144 132.008 37.872 130.936 37.328C129.864 36.768 129.032 35.992 128.44 35C127.864 33.992 127.576 32.824 127.576 31.496C127.576 30.184 127.864 29.032 128.44 28.04C129.032 27.032 129.864 26.256 130.936 25.712C132.008 25.152 133.248 24.872 134.656 24.872ZM134.656 28.328C133.824 28.328 133.152 28.624 132.64 29.216C132.128 29.808 131.872 30.584 131.872 31.544C131.872 32.52 132.128 33.304 132.64 33.896C133.152 34.488 133.824 34.784 134.656 34.784C135.504 34.784 136.184 34.488 136.696 33.896C137.208 33.304 137.464 32.52 137.464 31.544C137.464 30.584 137.2 29.808 136.672 29.216C136.16 28.624 135.488 28.328 134.656 28.328ZM149.893 24.848C151.685 24.848 153.077 25.264 154.069 26.096C155.061 26.912 155.565 28.064 155.581 29.552V38H151.381V36.536C150.517 37.64 149.213 38.192 147.469 38.192C146.093 38.192 145.005 37.824 144.205 37.088C143.421 36.336 143.029 35.352 143.029 34.136C143.029 32.904 143.453 31.944 144.301 31.256C145.165 30.568 146.397 30.216 147.997 30.2H151.381V30.056C151.381 29.432 151.165 28.952 150.733 28.616C150.317 28.28 149.709 28.112 148.909 28.112C148.365 28.112 147.749 28.2 147.061 28.376C146.389 28.552 145.709 28.808 145.021 29.144L143.845 26.264C144.901 25.784 145.909 25.432 146.869 25.208C147.845 24.968 148.853 24.848 149.893 24.848ZM148.789 35.288C149.429 35.288 149.989 35.136 150.469 34.832C150.949 34.512 151.253 34.104 151.381 33.608V32.48H148.837C147.637 32.48 147.037 32.928 147.037 33.824C147.037 34.272 147.189 34.632 147.493 34.904C147.813 35.16 148.245 35.288 148.789 35.288ZM167.119 24.848C168.543 24.848 169.679 25.296 170.527 26.192C171.391 27.088 171.823 28.296 171.823 29.816V38H167.575V31.04C167.575 30.304 167.375 29.728 166.975 29.312C166.575 28.88 166.039 28.664 165.367 28.664C164.663 28.68 164.079 28.912 163.615 29.36C163.167 29.808 162.903 30.4 162.823 31.136V38H158.551V25.016H162.823V27.128C163.287 26.376 163.879 25.808 164.599 25.424C165.335 25.04 166.175 24.848 167.119 24.848ZM183.487 29.12C181.807 28.24 180.431 27.8 179.359 27.8C178.991 27.8 178.695 27.872 178.471 28.016C178.247 28.144 178.135 28.344 178.135 28.616C178.135 28.904 178.311 29.136 178.663 29.312C179.015 29.488 179.575 29.68 180.343 29.888C181.271 30.16 182.039 30.432 182.647 30.704C183.271 30.96 183.807 31.36 184.255 31.904C184.703 32.432 184.927 33.128 184.927 33.992C184.927 35.304 184.415 36.336 183.391 37.088C182.383 37.824 181.063 38.192 179.431 38.192C178.327 38.192 177.271 38.04 176.263 37.736C175.255 37.416 174.359 36.952 173.575 36.344L174.919 33.584C175.655 34.096 176.423 34.496 177.223 34.784C178.039 35.056 178.807 35.192 179.527 35.192C179.943 35.192 180.271 35.128 180.511 35C180.767 34.856 180.895 34.656 180.895 34.4C180.895 34.08 180.711 33.832 180.343 33.656C179.991 33.48 179.431 33.288 178.663 33.08C177.751 32.808 176.999 32.544 176.407 32.288C175.815 32.016 175.295 31.616 174.847 31.088C174.415 30.56 174.199 29.872 174.199 29.024C174.199 27.712 174.695 26.688 175.687 25.952C176.679 25.2 177.959 24.824 179.527 24.824C180.471 24.824 181.399 24.952 182.311 25.208C183.239 25.464 184.111 25.84 184.927 26.336L183.487 29.12Z" fill="white"/>
</svg>
