<svg width="122" height="22" viewBox="0 0 122 22" fill="none" xmlns="http://www.w3.org/2000/svg">
<g clip-path="url(#clip0_72_1035)">
<path d="M24.0289 8.46201C23.9661 8.29542 23.8504 8.14903 23.6961 8.04092C23.5419 7.93282 23.3558 7.86773 23.1609 7.85369L17.4599 7.44605L14.9929 2.5318C14.9143 2.37352 14.7865 2.23909 14.6249 2.14472C14.4633 2.05036 14.2748 2.0001 14.0822 2C13.8896 1.9999 13.701 2.04998 13.5393 2.14419C13.3776 2.23839 13.2496 2.3727 13.1709 2.5309L10.7039 7.44605L5.00282 7.85369C4.81127 7.86735 4.62815 7.93037 4.47537 8.03523C4.32259 8.14008 4.20661 8.28233 4.14131 8.44494C4.07601 8.60756 4.06415 8.78366 4.10716 8.95218C4.15017 9.1207 4.24622 9.27451 4.38382 9.39519L8.59684 13.091L7.10683 18.897C7.06159 19.0728 7.07609 19.2567 7.14845 19.4249C7.22081 19.5932 7.3477 19.738 7.51264 19.8405C7.67757 19.943 7.87295 19.9986 8.07342 20C8.27389 20.0013 8.47018 19.9485 8.63684 19.8482L14.0819 16.5816L19.5269 19.8482C19.6972 19.95 19.8981 20.0024 20.1025 19.9983C20.307 19.9943 20.5051 19.934 20.6703 19.8256C20.8355 19.7172 20.9599 19.5659 21.0267 19.392C21.0935 19.2181 21.0995 19.03 21.0439 18.8529L19.2149 13.0937L23.7509 9.42039C24.0479 9.17922 24.1569 8.80307 24.0289 8.46201Z" fill="#F3CD03"/>
<path d="M47.0289 8.46201C46.9661 8.29542 46.8504 8.14903 46.6961 8.04092C46.5419 7.93282 46.3558 7.86773 46.1609 7.85369L40.4599 7.44605L37.9929 2.5318C37.9143 2.37352 37.7865 2.23909 37.6249 2.14472C37.4633 2.05036 37.2748 2.0001 37.0822 2C36.8896 1.9999 36.701 2.04998 36.5393 2.14419C36.3776 2.23839 36.2496 2.3727 36.1709 2.5309L33.7039 7.44605L28.0028 7.85369C27.8113 7.86735 27.6282 7.93037 27.4754 8.03523C27.3226 8.14008 27.2066 8.28233 27.1413 8.44494C27.076 8.60756 27.0642 8.78366 27.1072 8.95218C27.1502 9.1207 27.2462 9.27451 27.3838 9.39519L31.5968 13.091L30.1068 18.897C30.0616 19.0728 30.0761 19.2567 30.1485 19.4249C30.2208 19.5932 30.3477 19.738 30.5126 19.8405C30.6776 19.943 30.873 19.9986 31.0734 20C31.2739 20.0013 31.4702 19.9485 31.6368 19.8482L37.0819 16.5816L42.5269 19.8482C42.6972 19.95 42.8981 20.0024 43.1025 19.9983C43.307 19.9943 43.5051 19.934 43.6703 19.8256C43.8355 19.7172 43.9599 19.5659 44.0267 19.392C44.0935 19.2181 44.0995 19.03 44.0439 18.8529L42.2149 13.0937L46.7509 9.42039C47.0479 9.17922 47.1569 8.80307 47.0289 8.46201Z" fill="#F3CD03"/>
<path d="M68.9586 8.46201C68.8958 8.29542 68.7801 8.14903 68.6258 8.04092C68.4716 7.93282 68.2855 7.86773 68.0906 7.85369L62.3896 7.44605L59.9226 2.5318C59.844 2.37352 59.7162 2.23909 59.5546 2.14472C59.393 2.05036 59.2045 2.0001 59.0119 2C58.8192 1.9999 58.6307 2.04998 58.469 2.14419C58.3073 2.23839 58.1793 2.3727 58.1006 2.5309L55.6335 7.44605L49.9325 7.85369C49.741 7.86735 49.5578 7.93037 49.4051 8.03523C49.2523 8.14008 49.1363 8.28233 49.071 8.44494C49.0057 8.60756 48.9938 8.78366 49.0368 8.95218C49.0799 9.1207 49.1759 9.27451 49.3135 9.39519L53.5265 13.091L52.0365 18.897C51.9913 19.0728 52.0058 19.2567 52.0781 19.4249C52.1505 19.5932 52.2774 19.738 52.4423 19.8405C52.6073 19.943 52.8026 19.9986 53.0031 20C53.2036 20.0013 53.3999 19.9485 53.5665 19.8482L59.0116 16.5816L64.4566 19.8482C64.6269 19.95 64.8278 20.0024 65.0322 19.9983C65.2366 19.9943 65.4348 19.934 65.6 19.8256C65.7652 19.7172 65.8896 19.5659 65.9564 19.392C66.0232 19.2181 66.0292 19.03 65.9736 18.8529L64.1446 13.0937L68.6806 9.42039C68.9776 9.17922 69.0866 8.80307 68.9586 8.46201Z" fill="#F3CD03"/>
<path d="M91.4235 8.46201C91.3606 8.29542 91.2449 8.14903 91.0907 8.04092C90.9364 7.93282 90.7503 7.86773 90.5555 7.85369L84.8544 7.44605L82.3874 2.5318C82.3088 2.37352 82.181 2.23909 82.0195 2.14472C81.8579 2.05036 81.6694 2.0001 81.4767 2C81.2841 1.9999 81.0955 2.04998 80.9338 2.14419C80.7721 2.23839 80.6442 2.3727 80.5654 2.5309L78.0984 7.44605L72.3974 7.85369C72.2058 7.86735 72.0227 7.93037 71.8699 8.03523C71.7171 8.14008 71.6011 8.28233 71.5358 8.44494C71.4705 8.60756 71.4587 8.78366 71.5017 8.95218C71.5447 9.1207 71.6407 9.27451 71.7783 9.39519L75.9914 13.091L74.5014 18.897C74.4561 19.0728 74.4706 19.2567 74.543 19.4249C74.6153 19.5932 74.7422 19.738 74.9072 19.8405C75.0721 19.943 75.2675 19.9986 75.468 20C75.6684 20.0013 75.8647 19.9485 76.0314 19.8482L81.4764 16.5816L86.9214 19.8482C87.0918 19.95 87.2927 20.0024 87.4971 19.9983C87.7015 19.9943 87.8996 19.934 88.0648 19.8256C88.2301 19.7172 88.3544 19.5659 88.4212 19.392C88.488 19.2181 88.494 19.03 88.4384 18.8529L86.6094 13.0937L91.1455 9.42039C91.4425 9.17922 91.5515 8.80307 91.4235 8.46201Z" fill="#F3CD03"/>
<path d="M99.372 13.0899L97.9565 18.8956C97.9127 19.0714 97.9259 19.2556 97.9943 19.4242C98.0627 19.5928 98.1832 19.738 98.3401 19.8407C98.497 19.9434 98.6829 19.9989 98.8736 20C99.0643 20.0011 99.2509 19.9476 99.4091 19.8467L104.582 16.5803L109.755 19.8467C109.916 19.9485 110.107 20.0008 110.301 19.9968C110.496 19.9928 110.684 19.9325 110.841 19.8241C110.998 19.7157 111.116 19.5644 111.179 19.3905C111.243 19.2167 111.249 19.0285 111.196 18.8515L109.458 13.0926L113.767 9.41949C113.905 9.30179 114.004 9.14834 114.051 8.97814C114.098 8.80794 114.091 8.62844 114.031 8.46184C113.972 8.29525 113.862 8.14887 113.715 8.0408C113.569 7.93273 113.392 7.86772 113.207 7.85379L107.791 7.44527L105.447 2.53132C105.373 2.37309 105.251 2.23873 105.098 2.14445C104.944 2.05017 104.765 2 104.582 2C104.399 2 104.22 2.05017 104.066 2.14445C103.913 2.23873 103.791 2.37309 103.716 2.53132L101.373 7.44527L95.9568 7.85289C95.7748 7.86655 95.6008 7.92957 95.4557 8.03442C95.3105 8.13927 95.2004 8.2815 95.1383 8.44411C95.0763 8.60671 95.065 8.78281 95.1059 8.95132C95.1467 9.11983 95.238 9.27362 95.3687 9.3943L99.372 13.0899ZM102.082 9.19724C102.252 9.18458 102.415 9.12895 102.554 9.03618C102.693 8.94341 102.803 8.8169 102.873 8.66994L104.582 5.08773L106.291 8.66994C106.361 8.8169 106.471 8.94341 106.61 9.03618C106.749 9.12895 106.912 9.18458 107.081 9.19724L110.855 9.48068L107.747 12.1298C107.477 12.3601 107.37 12.7147 107.469 13.0458L108.659 16.9915L105.11 14.7501C104.954 14.651 104.771 14.5981 104.583 14.5981C104.396 14.5981 104.212 14.651 104.057 14.7501L100.348 17.0923L101.345 13.0017C101.382 12.8513 101.377 12.6944 101.331 12.5463C101.285 12.3982 101.2 12.2637 101.083 12.1559L98.1969 9.49058L102.082 9.19724Z" fill="#F3CD03"/>
</g>
<defs>
<clipPath id="clip0_72_1035">
<rect width="121" height="22" fill="white" transform="translate(0.581787)"/>
</clipPath>
</defs>
</svg>
