<svg width="23" height="17" viewBox="0 0 23 17" fill="none" xmlns="http://www.w3.org/2000/svg">
<path d="M7.00003 13.5601L2.37337 8.93344C2.12406 8.68413 1.78593 8.54408 1.43336 8.54408C1.0808 8.54408 0.742668 8.68413 0.493365 8.93344C0.244061 9.18274 0.104004 9.52087 0.104004 9.87344C0.104004 10.048 0.138389 10.2209 0.205196 10.3822C0.272002 10.5434 0.369922 10.69 0.493365 10.8134L6.0667 16.3868C6.5867 16.9068 7.4267 16.9068 7.9467 16.3868L22.0534 2.2801C22.3027 2.0308 22.4427 1.69267 22.4427 1.3401C22.4427 0.987535 22.3027 0.649407 22.0534 0.400103C21.8041 0.1508 21.4659 0.0107422 21.1134 0.0107422C20.7608 0.0107422 20.4227 0.1508 20.1734 0.400103L7.00003 13.5601Z" fill="white"/>
</svg>
