<svg width="80" height="70" viewBox="0 0 80 70" fill="none" xmlns="http://www.w3.org/2000/svg">
<path d="M19.6591 69.4384C13.6583 69.4384 8.85762 67.2952 5.25711 63.0089C1.82805 58.5511 0.113525 52.8074 0.113525 45.7779C0.113525 36.1765 2.68532 27.5182 7.8289 19.8028C13.1439 11.916 21.2022 5.31503 32.0037 0L34.8327 4.11486C29.6891 7.20101 24.9742 11.5731 20.6879 17.231C16.573 22.7175 14.5156 28.2897 14.5156 33.9476C14.5156 35.4907 14.9442 36.7766 15.8015 37.8053C16.6587 38.6626 17.9446 39.0912 19.6591 39.0912C23.9455 39.0912 27.546 40.6343 30.4607 43.7204C33.5468 46.6351 35.0899 50.2356 35.0899 54.522C35.0899 58.8083 33.5468 62.4088 30.4607 65.3235C27.546 68.0667 23.9455 69.4384 19.6591 69.4384ZM64.1511 69.4384C58.1503 69.4384 53.3496 67.2952 49.7491 63.0089C46.32 58.5511 44.6055 52.8074 44.6055 45.7779C44.6055 36.1765 47.1773 27.5182 52.3209 19.8028C57.6359 11.916 65.6942 5.31503 76.4957 0L79.3247 4.11486C74.1811 7.20101 69.4662 11.5731 65.1798 17.231C61.065 22.7175 59.0075 28.2897 59.0075 33.9476C59.0075 35.4907 59.4362 36.7766 60.2934 37.8053C61.1507 38.6626 62.4366 39.0912 64.1511 39.0912C68.4374 39.0912 72.0379 40.6343 74.9526 43.7204C78.0388 46.6351 79.5819 50.2356 79.5819 54.522C79.5819 58.8083 78.0388 62.4088 74.9526 65.3235C72.0379 68.0667 68.4374 69.4384 64.1511 69.4384Z" fill="#08A3D1"/>
</svg>
